<svg width="94" height="26" viewBox="0 0 94 26" fill="none" xmlns="http://www.w3.org/2000/svg">
<path d="M37.4824 21.3052C32.3555 21.3052 29.145 17.875 29.145 12.1865C29.145 6.51025 32.3799 3.08008 37.4824 3.08008C41.7183 3.08008 44.9409 5.76562 45.2217 9.7085H41.6328C41.291 7.54785 39.6309 6.13184 37.4824 6.13184C34.6992 6.13184 32.9048 8.46338 32.9048 12.1743C32.9048 15.9341 34.6748 18.2534 37.4946 18.2534C39.6797 18.2534 41.2544 16.9717 41.645 14.8843H45.2339C44.8188 18.8149 41.8037 21.3052 37.4824 21.3052ZM51.9419 18.6318C53.4922 18.6318 54.7739 17.6187 54.7739 16.2026V15.2505L52.0151 15.4214C50.6846 15.519 49.9277 16.1172 49.9277 17.0449C49.9277 18.0215 50.7334 18.6318 51.9419 18.6318ZM50.77 21.2075C48.2798 21.2075 46.3877 19.5962 46.3877 17.2402C46.3877 14.8599 48.2188 13.4805 51.478 13.2852L54.7739 13.0898V12.2231C54.7739 11.0024 53.9194 10.2944 52.5767 10.2944C51.2461 10.2944 50.4038 10.9536 50.2329 11.918H46.9736C47.1079 9.37891 49.2686 7.6333 52.7354 7.6333C56.0923 7.6333 58.2773 9.3667 58.2773 12.0034V21H54.835V18.998H54.7617C54.0293 20.3896 52.4058 21.2075 50.77 21.2075ZM60.4199 21V3.38525H63.9844V21H60.4199ZM70.9976 21.2075C67.7261 21.2075 65.6631 18.6196 65.6631 14.4326C65.6631 10.2822 67.7383 7.70654 71.022 7.70654C72.9141 7.70654 74.3789 8.70752 75.0137 10.1602H75.0869V3.38525H78.6514V21H75.1357V18.7539H75.0747C74.4399 20.1943 72.9263 21.2075 70.9976 21.2075ZM72.2061 10.563C70.4116 10.563 69.313 12.0645 69.313 14.457C69.313 16.8618 70.4116 18.3389 72.2061 18.3389C73.9761 18.3389 75.1113 16.8496 75.1113 14.457C75.1113 12.0767 73.9761 10.563 72.2061 10.563ZM82.4541 25.8462C82.332 25.8462 81.2212 25.834 81.1113 25.8096V23.063C81.2212 23.0874 81.8682 23.0874 82.0024 23.0874C83.3086 23.0874 83.9556 22.6724 84.1997 21.6348C84.1997 21.5859 84.334 21.061 84.3096 21.0122L79.7563 7.91406H83.6748L86.458 18.1436H86.519L89.3022 7.91406H93.062L88.5576 21.293C87.4346 24.6499 85.7988 25.8462 82.4541 25.8462Z" fill="black"/>
<circle cx="5.16992" cy="7.2583" r="3" fill="#636874"/>
<path d="M3.16828 21.2573C3.16828 21.2573 2.16984 17.2582 4.16984 15.2582C6.16984 13.2582 8.16992 15.7583 11.1683 13.7573C14.1666 11.7563 13.6699 5.2583 13.6699 5.2583" stroke="#636874" stroke-width="3" stroke-linecap="round"/>
<path d="M9.16832 19.7579C9.16832 19.7579 14.6689 20.7583 17.6689 16.7583C20.6689 12.7583 20.1688 5.25815 20.1688 5.25815" stroke="#636874" stroke-width="3" stroke-linecap="round"/>
</svg>
