<svg width="20" height="20" viewBox="0 0 20 20" fill="none" xmlns="http://www.w3.org/2000/svg">
<rect x="0.5" y="0.5" width="19" height="19" rx="4.5" stroke="#54555D"/>
<path d="M10 4C10 5.36567 10 6.75176 10 8.11751C10 8.87205 10 9.631 10 10.3864C10 11.1438 10 11.9048 10 12.6599C10 13.7655 10 14.8898 10 16" stroke="#54555D" stroke-linecap="round"/>
<path d="M4 10C4.1754 10 4.35604 10 4.53664 10C5.01496 10 5.4898 10 5.96698 10C6.66025 10 7.36232 10 8.05779 10C9.38012 10 10.7024 10 12.0248 10C13.3526 10 14.6717 10 16 10" stroke="#54555D" stroke-linecap="round"/>
</svg>
